<?xml version="1.0" standalone="no"?>
<!DOCTYPE svg PUBLIC "-//W3C//DTD SVG 20010904//EN"
 "http://www.w3.org/TR/2001/REC-SVG-20010904/DTD/svg10.dtd">
<svg version="1.0" xmlns="http://www.w3.org/2000/svg"
 width="300.000000pt" height="200.000000pt" viewBox="0 0 300.000000 200.000000"
 preserveAspectRatio="xMidYMid meet">
<metadata>
Created by potrace 1.15, written by Peter Selinger 2001-2017
</metadata>
<g transform="translate(0.000000,200.000000) scale(0.100000,-0.100000)"
fill="#000000" stroke="none">
<path d="M320 1283 c0 -56 27 -494 36 -570 l5 -53 173 0 173 0 116 324 c65
178 117 329 117 335 0 8 -53 11 -180 11 l-180 0 0 -42 c0 -24 3 -73 7 -110 6
-67 6 -68 34 -68 16 0 29 -3 29 -7 0 -8 -20 -65 -58 -163 l-17 -45 -15 215
-15 215 -112 3 -113 3 0 -48z"/>
<path d="M900 1004 c-74 -179 -137 -330 -138 -335 -2 -6 44 -9 114 -7 l118 3
76 182 c108 256 99 245 99 126 l1 -102 -32 -3 c-31 -3 -34 -8 -74 -103 l-42
-100 180 -3 c100 -1 183 -1 185 1 2 2 0 153 -3 336 l-7 331 -171 0 -171 0
-135 -326z"/>
<path d="M1501 1023 c-29 -170 -55 -320 -58 -335 l-5 -28 105 0 105 0 17 98
c9 53 18 102 19 107 5 16 14 -43 21 -127 l7 -78 61 0 62 0 50 115 c27 63 50
113 52 112 1 -2 -7 -52 -17 -112 -11 -59 -20 -110 -20 -112 0 -2 47 -3 104 -3
l104 0 6 28 c16 75 106 605 106 622 0 19 -8 20 -132 20 l-133 0 -55 -133 -55
-132 -6 65 c-4 36 -7 95 -8 133 l-1 67 -138 0 -138 0 -53 -307z"/>
<path d="M2552 1237 c-61 -138 -59 -127 -18 -127 42 0 41 4 21 -109 -26 -144
-18 -131 -82 -131 l-56 0 6 45 7 45 -105 0 c-58 0 -105 -1 -105 -2 0 -2 -11
-66 -25 -142 -14 -77 -25 -144 -25 -148 0 -4 115 -8 255 -8 l256 0 20 48 c15
35 119 569 119 615 0 4 -51 7 -114 7 l-113 0 -41 -93z"/>
</g>
</svg>
